# xmcd
#
# Track frame offsets:
#	150
#	19132
#	34890
#	51867
#	71907
#	90027
#	110850
#	127765
#	145780
#	167625
#
# Disc length: 2529 seconds
#
# Revision: 1
# Processed by: cddbd v1.5PL3 Copyright (c) Steve Scherf et al.
# Submitted via: CDex 1.50Beta5
#
DISCID=8209df0a
DTITLE=ribbon - Delicious〜Best Of ribbon Disc 1
DYEAR=1991
DGENRE=Pop
TTITLE0=リトル☆デイト
TTITLE1=そばにいるね
TTITLE2=あのコによろしく
TTITLE3=Virgin Snow
TTITLE4=太陽の行方
TTITLE5=サイレント・サマー
TTITLE6=わかってないね
TTITLE7=愛
TTITLE8=振ってもいいよ
TTITLE9=Stay with me
EXTD=
EXTT0=
EXTT1=
EXTT2=
EXTT3=
EXTT4=
EXTT5=
EXTT6=
EXTT7=
EXTT8=
EXTT9=
PLAYORDER=
